<svg xmlns="http://www.w3.org/2000/svg" width="20" height="20" fill="none"><path d="M5.417 1.667h9.167c.129 0 .257.03.373.088a.84.84 0 0 1 .294.245l2.25 3v12.5c0 .221-.088.433-.244.589s-.368.244-.589.244H3.333c-.221 0-.433-.088-.589-.244S2.5 17.721 2.5 17.5V5l2.25-3a.84.84 0 0 1 .294-.245.83.83 0 0 1 .373-.088zm10 3.333l-1.25-1.667H5.833L4.583 5h10.833zM7.5 8.333H5.833V10c0 1.105.439 2.165 1.22 2.946s1.841 1.22 2.946 1.22 2.165-.439 2.946-1.22 1.22-1.841 1.22-2.946V8.333H12.5V10a2.5 2.5 0 1 1-5 0V8.333z" fill="#fff"/></svg>