<?xml version="1.0" encoding="UTF-8"?>
<svg fill="none" viewBox="0 0 20 20" xmlns="http://www.w3.org/2000/svg">
<path d="M7.471 15c-.099.695-.446 1.331-.976 1.792s-1.209.714-1.911.714-1.381-.253-1.911-.714-.877-1.096-.976-1.792H.833V5c0-.221.088-.433.244-.589s.368-.244.589-.244h11.667c.221 0 .433.088.589.244s.244.368.244.589v1.667h2.5l2.5 3.38V15h-1.696c-.099.695-.446 1.331-.976 1.792s-1.209.714-1.911.714-1.381-.253-1.911-.714-.877-1.096-.976-1.792H7.471zM12.5 5.833h-10v6.708c.329-.336.734-.587 1.181-.732s.922-.181 1.386-.103.901.266 1.276.55.676.653.877 1.077h4.728a2.94 2.94 0 0 1 .553-.792V5.833zm1.667 5H17.5v-.237l-1.673-2.262h-1.66v2.5zm.417 5a1.25 1.25 0 0 0 1.25-1.25 1.25 1.25 0 0 0-1.25-1.25 1.25 1.25 0 0 0-1.25 1.25 1.25 1.25 0 0 0 1.25 1.25zm-8.75-1.25a1.25 1.25 0 0 0-.366-.884 1.25 1.25 0 0 0-.884-.366 1.25 1.25 0 0 0-.884.366 1.25 1.25 0 0 0-.366.884 1.25 1.25 0 0 0 1.25 1.25 1.25 1.25 0 0 0 1.25-1.25z" fill="#000"/>
</svg>