<svg xmlns="http://www.w3.org/2000/svg" width="20" height="20" fill="none"><path d="M14.583 17.5c-.774 0-1.515-.307-2.062-.854s-.854-1.289-.854-2.062.307-1.515.854-2.062 1.289-.854 2.062-.854 1.515.307 2.062.854.854 1.289.854 2.062-.307 1.515-.854 2.062-1.289.854-2.062.854zM5.417 8.333c-.383 0-.762-.075-1.116-.222s-.675-.361-.946-.632-.486-.592-.632-.946S2.5 5.8 2.5 5.417s.075-.762.222-1.116.361-.675.632-.946.592-.486.946-.632.733-.222 1.116-.222c.774 0 1.515.307 2.062.854s.854 1.289.854 2.062-.307 1.515-.854 2.062-1.289.854-2.062.854zm10.476-5.404l1.178 1.178L4.108 17.071 2.93 15.893 15.892 2.929h.001z" fill="#d21234"/></svg>