<?xml version="1.0" encoding="UTF-8"?>
<svg fill="none" viewBox="0 0 24 24" xmlns="http://www.w3.org/2000/svg">
<g opacity="1">
<path d="m12 3c5.392 0 9.878 3.88 10.819 9-0.94 5.12-5.427 9-10.819 9-5.392 0-9.878-3.88-10.819-9 0.94-5.12 5.427-9 10.819-9zm0 16c2.0395-4e-4 4.0184-0.6932 5.6129-1.9648 1.5945-1.2717 2.71-3.0469 3.1641-5.0352-0.4557-1.9867-1.572-3.76-3.1663-5.03-1.5944-1.27-3.5724-1.9615-5.6107-1.9615-2.0383 0-4.0163 0.69152-5.6106 1.9615-1.5943 1.27-2.7106 3.0433-3.1664 5.03 0.4541 1.9883 1.5697 3.7635 3.1641 5.0352 1.5945 1.2716 3.5734 1.9644 5.6128 1.9648zm0-2.5c-1.1934 0-2.338-0.4741-3.182-1.318s-1.318-1.9885-1.318-3.182 0.47411-2.3381 1.318-3.182 1.9886-1.318 3.182-1.318c1.1935 0 2.3381 0.47411 3.182 1.318s1.318 1.9885 1.318 3.182-0.4741 2.3381-1.318 3.182-1.9885 1.318-3.182 1.318zm0-2c0.6631 0 1.299-0.2634 1.7678-0.7322 0.4688-0.4689 0.7322-1.1048 0.7322-1.7678s-0.2634-1.2989-0.7322-1.7678c-0.4688-0.46881-1.1047-0.7322-1.7678-0.7322-0.663 0-1.2989 0.26339-1.7677 0.7322-0.46888 0.4689-0.73227 1.1048-0.73227 1.7678s0.26339 1.2989 0.73227 1.7678c0.4688 0.4688 1.1047 0.7322 1.7677 0.7322z" fill="#2E3456"/>
</g>
</svg>