<?xml version="1.0" encoding="UTF-8"?>
<svg fill="none" viewBox="0 0 20 20" xmlns="http://www.w3.org/2000/svg">
<path d="M10 18.333c-4.602 0-8.333-3.731-8.333-8.333S5.398 1.667 10 1.667 18.333 5.398 18.333 10 14.603 18.333 10 18.333zm0-1.667c1.768 0 3.464-.702 4.714-1.953s1.953-2.946 1.953-4.714-.702-3.464-1.953-4.714S11.768 3.333 10 3.333s-3.464.702-4.714 1.953S3.333 8.232 3.333 10s.702 3.464 1.953 4.714S8.232 16.667 10 16.667zM9.167 5.833h1.667V7.5H9.167V5.833zm0 3.333h1.667v5H9.167v-5z" fill="#000"/>
</svg>