<svg xmlns="http://www.w3.org/2000/svg" width="20" height="20" fill="none"><path d="M9.167 14.948a6.67 6.67 0 0 1-4.297-2.366c-1.08-1.306-1.622-2.974-1.515-4.666A6.67 6.67 0 0 1 10 1.667c1.697-.001 3.33.644 4.567 1.806s1.985 2.75 2.091 4.444-.437 3.364-1.52 4.67-2.622 2.152-4.306 2.362v1.728c3.288.077 5.833.602 5.833 1.24 0 .69-2.985 1.25-6.667 1.25s-6.667-.56-6.667-1.25c0-.637 2.545-1.163 5.833-1.24v-1.728zM10 10c.442 0 .866-.176 1.178-.488s.488-.736.488-1.179-.176-.866-.488-1.179-.736-.488-1.178-.488-.866.176-1.178.488-.488.736-.488 1.179.176.866.488 1.179S9.558 10 10 10z" fill="#2e3456"/></svg>