<?xml version="1.0" encoding="UTF-8"?>
<svg fill="none" viewBox="0 0 24 24" xmlns="http://www.w3.org/2000/svg">
<g opacity="1">
<path d="m12 17c3.662 0 6.865 1.575 8.607 3.925l-1.842 0.871c-1.418-1.68-3.918-2.796-6.765-2.796-2.847 0-5.347 1.116-6.765 2.796l-1.841-0.872c1.742-2.35 4.944-3.924 8.606-3.924zm0-15c1.3261 0 2.5978 0.52678 3.5355 1.4645 0.9377 0.93768 1.4645 2.2094 1.4645 3.5355v3c-1e-4 1.2885-0.4976 2.5272-1.3887 3.4578s-2.1071 1.4813-3.3943 1.5372l-0.217 5e-3c-1.3261 0-2.5979-0.5268-3.5356-1.4645-0.93768-0.9376-1.4645-2.2094-1.4645-3.5355v-3c8e-5 -1.2885 0.49754-2.5272 1.3887-3.4578 0.89112-0.93061 2.1071-1.4813 3.3944-1.5372l0.217-5e-3zm0 2c-0.7652-4e-5 -1.5015 0.29233-2.0583 0.81728-0.55675 0.52496-0.89185 1.2428-0.93674 2.0067l-5e-3 0.176v3c-7.5e-4 0.7809 0.30302 1.5313 0.84677 2.0918s1.2846 0.8869 2.0652 0.9098c0.7806 0.0229 1.5394-0.2594 2.1151-0.7871 0.5756-0.5276 0.9229-1.2589 0.968-2.0385l5e-3 -0.176v-3c0-0.79565-0.3161-1.5587-0.8787-2.1213s-1.3257-0.87868-2.1213-0.87868z" fill="#2E3456"/>
</g>
</svg>
