<?xml version="1.0" encoding="UTF-8"?>
<svg fill="none" viewBox="0 0 24 24" xmlns="http://www.w3.org/2000/svg">
<g opacity="1">
<path d="m4 2h16c0.2652 0 0.5196 0.10535 0.7071 0.29289s0.2929 0.44189 0.2929 0.70711v19.276c1e-4 0.0834-0.0207 0.1656-0.0605 0.2389s-0.0973 0.1356-0.1673 0.181c-0.0699 0.0454-0.1502 0.0726-0.2334 0.0791-0.0831 0.0065-0.1666-8e-3 -0.2428-0.042l-8.296-3.703-8.296 3.702c-0.0761 0.034-0.15949 0.0485-0.24259 0.042-0.0831-0.0064-0.16328-0.0335-0.23323-0.0788-0.06996-0.0453-0.12748-0.1074-0.16733-0.1806s-0.06077-0.1552-0.06085-0.2386v-19.276c0-0.26522 0.10536-0.51957 0.29289-0.70711 0.18754-0.18754 0.44189-0.29289 0.70711-0.29289zm15 17.965v-15.965h-14v15.965l7-3.124 7 3.124zm-7-6.465-2.939 1.545 0.561-3.272-2.377-2.318 3.286-0.478 1.469-2.977 1.47 2.977 3.285 0.478-2.377 2.318 0.56 3.272-2.938-1.545z" fill="#2E3456"/>
</g>
</svg>