<?xml version="1.0" encoding="UTF-8"?>
<svg fill="none" viewBox="0 0 20 20" xmlns="http://www.w3.org/2000/svg">
<path d="M3.333 1.667h13.333c.221 0 .433.088.589.244s.244.368.244.589v16.063c0 .07-.017.138-.05.199s-.081.113-.139.151-.125.061-.194.066-.139-.007-.202-.035L10 15.858l-6.913 3.085c-.063.028-.133.04-.202.035s-.136-.028-.194-.066-.106-.09-.139-.151-.051-.129-.051-.199V2.5c0-.221.088-.433.244-.589s.368-.244.589-.244zm12.5 14.971V3.333H4.167v13.304L10 14.034l5.833 2.603zM10 11.25l-2.449 1.287.468-2.727-1.981-1.932 2.738-.398L10 5l1.225 2.481 2.738.398-1.981 1.932.467 2.727L10 11.25z" fill="#000"/>
</svg>