<?xml version="1.0" encoding="UTF-8"?>
<svg fill="none" viewBox="0 0 24 24" xmlns="http://www.w3.org/2000/svg">
<g opacity=".3">
<path d="m9.954 2.21c1.349-0.28286 2.7418-0.28355 4.091-2e-3 0.0899 0.59329 0.3124 1.1587 0.6508 1.6542 0.3385 0.49549 0.7843 0.90833 1.3042 1.2078 0.5196 0.30053 1.1002 0.48007 1.6987 0.52525 0.5986 0.04519 1.1996-0.04513 1.7583-0.26425 0.9183 1.0281 1.6139 2.235 2.043 3.545-0.4686 0.37458-0.8468 0.84995-1.1065 1.3908-0.2597 0.5408-0.3942 1.1332-0.3935 1.7332 0 1.264 0.586 2.391 1.502 3.124-0.4316 1.3089-1.1281 2.5149-2.046 3.543-0.5586-0.219-1.1594-0.3092-1.7577-0.264-0.5984 0.0452-1.1788 0.2246-1.6983 0.525-0.5195 0.2994-0.9649 0.712-1.3032 1.2071s-0.5607 1.0601-0.6508 1.6529c-1.3487 0.2835-2.7416 0.2849-4.091 4e-3 -0.08946-0.5938-0.3117-1.1598-0.65018-1.6559-0.33848-0.496-0.78449-0.9093-1.3048-1.2091-0.51964-0.3004-1.1003-0.4797-1.6988-0.5247-0.59852-0.0451-1.1995 0.0454-1.7582 0.2647-0.9184-1.0284-1.614-2.2357-2.043-3.546 0.46839-0.3744 0.84646-0.8494 1.1061-1.3899 0.25968-0.5405 0.3943-1.1325 0.39387-1.7321 4.9e-4 -0.6001-0.1343-1.1926-0.39434-1.7335-0.26003-0.54084-0.63864-1.0161-1.1077-1.3905 0.43167-1.3089 1.1281-2.5149 2.046-3.543 0.55865 0.21896 1.1595 0.3092 1.7578 0.26401 0.59833-0.04518 1.1788-0.22463 1.6982-0.52501 0.51954-0.2994 0.96498-0.71198 1.3033-1.2071 0.33827-0.49512 0.56069-1.0611 0.65074-1.6539zm2.046 12.79c0.7957 0 1.5588-0.3161 2.1214-0.8787s0.8786-1.3257 0.8786-2.1213c0-0.7957-0.316-1.5587-0.8786-2.1213-0.5626-0.56261-1.3257-0.87868-2.1214-0.87868-0.7956 0-1.5587 0.31607-2.1213 0.87868-0.56261 0.56262-0.87868 1.3256-0.87868 2.1213 0 0.7956 0.31607 1.5587 0.87868 2.1213 0.56257 0.5626 1.3257 0.8787 2.1213 0.8787z" fill="#2E3456"/>
</g>
</svg>
