<?xml version="1.0" encoding="UTF-8"?>
<svg fill="none" viewBox="0 0 32 32" xmlns="http://www.w3.org/2000/svg">
<path d="M29.333 26.667v2.667H2.667v-2.667H4v-9.011c-.821-.548-1.494-1.29-1.959-2.16s-.708-1.842-.708-2.829c0-1.103.299-2.165.844-3.071l3.616-6.263c.117-.203.285-.371.488-.488s.433-.179.667-.179h18.105c.234 0 .464.062.667.179s.371.285.488.488l3.603 6.243c.796 1.321 1.051 2.898.714 4.403S29.283 16.801 28 17.656v9.011h1.333zM7.719 5.333l-3.244 5.617c-.315.779-.325 1.648-.026 2.434s.882 1.43 1.635 1.803 1.619.449 2.425.211 1.492-.771 1.922-1.493c.447-1.116 2.027-1.116 2.475 0 .247.619.674 1.15 1.226 1.524s1.203.574 1.87.574 1.318-.2 1.87-.574.979-.905 1.226-1.524c.447-1.116 2.027-1.116 2.475 0 .173.426.432.811.762 1.132s.721.57 1.151.732.889.233 1.349.21.908-.143 1.319-.348.775-.495 1.069-.848.512-.764.64-1.205.163-.905.103-1.361-.213-.894-.451-1.288L24.28 5.333H7.72h-.001z" fill="#fff"/>
</svg>
